# Blender 3.1.2
# www.blender.org
mtllib WHGPlayer.mtl
o Player
v 0.440037 -0.440037 0.500000
v 0.500000 -0.440037 0.559963
v 0.440037 -0.500000 0.559963
v 0.469979 -0.440037 0.508011
v 0.440037 -0.469979 0.508011
v 0.468712 -0.468712 0.515792
v 0.491989 -0.469979 0.559963
v 0.491989 -0.440037 0.530021
v 0.484208 -0.468712 0.531288
v 0.440037 -0.491989 0.530021
v 0.469979 -0.491989 0.559963
v 0.468712 -0.484208 0.531288
v 0.500000 -0.440037 1.440037
v 0.440037 -0.440037 1.500000
v 0.440037 -0.500000 1.440037
v 0.491989 -0.440037 1.469979
v 0.491989 -0.469979 1.440037
v 0.484208 -0.468712 1.468712
v 0.440037 -0.469979 1.491989
v 0.469979 -0.440037 1.491989
v 0.468712 -0.468712 1.484208
v 0.469979 -0.491989 1.440037
v 0.440037 -0.491989 1.469979
v 0.468712 -0.484208 1.468712
v -0.440037 -0.440037 0.500000
v -0.440037 -0.500000 0.559963
v -0.500000 -0.440037 0.559963
v -0.440037 -0.469979 0.508011
v -0.469979 -0.440037 0.508011
v -0.468712 -0.468712 0.515792
v -0.469979 -0.491989 0.559963
v -0.440037 -0.491989 0.530021
v -0.468712 -0.484208 0.531288
v -0.491989 -0.440037 0.530021
v -0.491989 -0.469979 0.559963
v -0.484208 -0.468712 0.531288
v -0.440037 -0.440037 1.500000
v -0.500000 -0.440037 1.440037
v -0.440037 -0.500000 1.440037
v -0.469979 -0.440037 1.491989
v -0.440037 -0.469979 1.491989
v -0.468712 -0.468712 1.484208
v -0.491989 -0.469979 1.440037
v -0.491989 -0.440037 1.469979
v -0.484208 -0.468712 1.468712
v -0.440037 -0.491989 1.469979
v -0.469979 -0.491989 1.440037
v -0.468712 -0.484208 1.468712
v 0.440037 0.440037 0.500000
v 0.440037 0.500000 0.559963
v 0.500000 0.440037 0.559963
v 0.440037 0.469979 0.508011
v 0.469979 0.440037 0.508011
v 0.468712 0.468712 0.515792
v 0.469979 0.491989 0.559963
v 0.440037 0.491989 0.530021
v 0.468712 0.484208 0.531288
v 0.491989 0.440037 0.530021
v 0.491989 0.469979 0.559963
v 0.484208 0.468712 0.531288
v 0.440037 0.440037 1.500000
v 0.500000 0.440037 1.440037
v 0.440037 0.500000 1.440037
v 0.469979 0.440037 1.491989
v 0.440037 0.469979 1.491989
v 0.468712 0.468712 1.484208
v 0.491989 0.469979 1.440037
v 0.491989 0.440037 1.469979
v 0.484208 0.468712 1.468712
v 0.440037 0.491989 1.469979
v 0.469979 0.491989 1.440037
v 0.468712 0.484208 1.468712
v -0.440037 0.440037 0.500000
v -0.500000 0.440037 0.559963
v -0.440037 0.500000 0.559963
v -0.469979 0.440037 0.508011
v -0.440037 0.469979 0.508011
v -0.468712 0.468712 0.515792
v -0.491989 0.469979 0.559963
v -0.491989 0.440037 0.530021
v -0.484208 0.468712 0.531288
v -0.440037 0.491989 0.530021
v -0.469979 0.491989 0.559963
v -0.468712 0.484208 0.531288
v -0.440037 0.440037 1.500000
v -0.440037 0.500000 1.440037
v -0.500000 0.440037 1.440037
v -0.440037 0.469979 1.491989
v -0.469979 0.440037 1.491989
v -0.468712 0.468712 1.484208
v -0.469979 0.491989 1.440037
v -0.440037 0.491989 1.469979
v -0.468712 0.484208 1.468712
v -0.491989 0.440037 1.469979
v -0.491989 0.469979 1.440037
v -0.484208 0.468712 1.468712
vn 1.0000 -0.0000 -0.0000
vn -0.0000 1.0000 -0.0000
vn -0.0000 -0.0000 1.0000
vn -0.0000 -1.0000 -0.0000
vn -1.0000 -0.0000 -0.0000
vn 0.2502 -0.2502 -0.9353
vn 0.6901 -0.2178 -0.6901
vn 0.9353 -0.2502 -0.2502
vn 0.6901 -0.6901 -0.2178
vn 0.2502 -0.9353 -0.2502
vn 0.2178 -0.6901 -0.6901
vn 0.5774 -0.5774 -0.5774
vn 0.9353 -0.2502 0.2502
vn 0.6901 -0.2178 0.6901
vn 0.2502 -0.2502 0.9353
vn 0.2178 -0.6901 0.6901
vn 0.2502 -0.9353 0.2502
vn 0.6901 -0.6901 0.2178
vn 0.5774 -0.5774 0.5774
vn -0.2502 -0.2502 -0.9353
vn -0.2178 -0.6901 -0.6901
vn -0.2502 -0.9353 -0.2502
vn -0.6901 -0.6901 -0.2178
vn -0.9353 -0.2502 -0.2502
vn -0.6901 -0.2178 -0.6901
vn -0.5774 -0.5774 -0.5774
vn -0.2502 -0.2502 0.9353
vn -0.6901 -0.2178 0.6901
vn -0.9353 -0.2502 0.2502
vn -0.6901 -0.6901 0.2178
vn -0.2502 -0.9353 0.2502
vn -0.2178 -0.6901 0.6901
vn -0.5774 -0.5774 0.5774
vn 0.2502 0.2502 -0.9353
vn 0.2178 0.6901 -0.6901
vn 0.2502 0.9353 -0.2502
vn 0.6901 0.6901 -0.2178
vn 0.9353 0.2502 -0.2502
vn 0.6901 0.2178 -0.6901
vn 0.5774 0.5774 -0.5774
vn 0.2502 0.2502 0.9353
vn 0.6901 0.2178 0.6901
vn 0.9353 0.2502 0.2502
vn 0.6901 0.6901 0.2178
vn 0.2502 0.9353 0.2502
vn 0.2178 0.6901 0.6901
vn 0.5774 0.5774 0.5774
vn -0.2502 0.2502 -0.9353
vn -0.6901 0.2178 -0.6901
vn -0.9353 0.2502 -0.2502
vn -0.6901 0.6901 -0.2178
vn -0.2502 0.9353 -0.2502
vn -0.2178 0.6901 -0.6901
vn -0.5774 0.5774 -0.5774
vn -0.2502 0.2502 0.9353
vn -0.2178 0.6901 0.6901
vn -0.2502 0.9353 0.2502
vn -0.6901 0.6901 0.2178
vn -0.9353 0.2502 0.2502
vn -0.6901 0.2178 0.6901
vn -0.5774 0.5774 0.5774
vn -0.0000 -0.2585 -0.9660
vn -0.0000 -0.7071 -0.7071
vn -0.0000 -0.9660 -0.2585
vn 0.9660 -0.2585 -0.0000
vn 0.7071 -0.7071 -0.0000
vn 0.2585 -0.9660 -0.0000
vn -0.0000 -0.2585 0.9660
vn -0.0000 -0.7071 0.7071
vn -0.0000 -0.9660 0.2585
vn -0.9660 -0.2585 -0.0000
vn -0.7071 -0.7071 -0.0000
vn -0.2585 -0.9660 -0.0000
vn -0.2585 -0.0000 -0.9660
vn -0.7071 -0.0000 -0.7071
vn -0.9660 -0.0000 -0.2585
vn -0.2585 -0.0000 0.9660
vn -0.7071 -0.0000 0.7071
vn -0.9660 -0.0000 0.2585
vn -0.2585 0.9660 -0.0000
vn -0.7071 0.7071 -0.0000
vn -0.9660 0.2585 -0.0000
vn -0.0000 0.2585 -0.9660
vn -0.0000 0.7071 -0.7071
vn -0.0000 0.9660 -0.2585
vn -0.0000 0.2585 0.9660
vn -0.0000 0.7071 0.7071
vn -0.0000 0.9660 0.2585
vn 0.9660 0.2585 -0.0000
vn 0.7071 0.7071 -0.0000
vn 0.2585 0.9660 -0.0000
vn 0.2585 -0.0000 -0.9660
vn 0.7071 -0.0000 -0.7071
vn 0.9660 -0.0000 -0.2585
vn 0.2585 -0.0000 0.9660
vn 0.7071 -0.0000 0.7071
vn 0.9660 -0.0000 0.2585
vn -0.0000 -0.0000 -1.0000
vn 0.2635 -0.2635 -0.9280
vn 0.9280 -0.2635 -0.2635
vn 0.2635 -0.9280 -0.2635
vn 0.9280 -0.2635 0.2635
vn 0.2635 -0.2635 0.9280
vn 0.2635 -0.9280 0.2635
vn -0.2635 -0.2635 -0.9280
vn -0.2635 -0.9280 -0.2635
vn -0.9280 -0.2635 -0.2635
vn -0.2635 -0.2635 0.9280
vn -0.9280 -0.2635 0.2635
vn -0.2635 -0.9280 0.2635
vn 0.2635 0.2635 -0.9280
vn 0.2635 0.9280 -0.2635
vn 0.9280 0.2635 -0.2635
vn 0.2635 0.2635 0.9280
vn 0.9280 0.2635 0.2635
vn 0.2635 0.9280 0.2635
vn -0.2635 0.2635 -0.9280
vn -0.9280 0.2635 -0.2635
vn -0.2635 0.9280 -0.2635
vn -0.2635 0.2635 0.9280
vn -0.2635 0.9280 0.2635
vn -0.9280 0.2635 0.2635
vt 0.139991 0.735009
vt 0.389991 0.985009
vt 0.389991 0.014991
vt 0.139991 0.742495
vt 0.125000 0.735009
vt 0.132505 0.735009
vt 0.132822 0.742178
vt 0.125000 0.742178
vt 0.389991 0.002003
vt 0.389991 0.000000
vt 0.389991 0.992495
vt 0.382505 0.985009
vt 0.139991 0.750000
vt 0.132822 0.750000
vt 0.382822 0.992178
vt 0.382822 0.003948
vt 0.127003 0.735009
vt 0.125000 0.735009
vt 0.382505 0.014991
vt 0.389991 0.000000
vt 0.389991 0.007505
vt 0.128948 0.742178
vt 0.125000 0.742178
vt 0.382822 0.000000
vt 0.382822 0.007822
vt 0.610009 0.985009
vt 0.860009 0.735009
vt 0.610009 0.014991
vt 0.617495 0.985009
vt 0.610009 0.992495
vt 0.610009 0.000000
vt 0.617178 0.992178
vt 0.617178 0.000000
vt 0.622997 0.014991
vt 0.625000 0.014991
vt 0.867495 0.735009
vt 0.860009 0.742495
vt 0.625000 0.985009
vt 0.625000 0.992178
vt 0.867178 0.742178
vt 0.621052 0.007822
vt 0.610009 0.007505
vt 0.625000 0.014991
vt 0.617495 0.014991
vt 0.617178 1.000000
vt 0.625000 0.007822
vt 0.617178 0.007822
vt 0.139991 0.514991
vt 0.389991 0.235009
vt 0.389991 0.264991
vt 0.132505 0.514991
vt 0.139991 0.500000
vt 0.139991 0.507505
vt 0.132822 0.507822
vt 0.132822 0.500000
vt 0.389991 0.242495
vt 0.382505 0.235009
vt 0.125000 0.514991
vt 0.125000 0.507822
vt 0.382822 0.242178
vt 0.139991 0.502003
vt 0.139991 0.500000
vt 0.382505 0.264991
vt 0.389991 0.250000
vt 0.389991 0.257505
vt 0.132822 0.503948
vt 0.132822 0.500000
vt 0.382822 0.250000
vt 0.382822 0.257822
vt 0.860009 0.514991
vt 0.610009 0.264991
vt 0.610009 0.235009
vt 0.622997 0.264991
vt 0.625000 0.264991
vt 0.860009 0.507505
vt 0.867495 0.514991
vt 0.625000 0.235009
vt 0.867178 0.507822
vt 0.621052 0.257822
vt 0.625000 0.242178
vt 0.610009 0.257505
vt 0.625000 0.264991
vt 0.617495 0.264991
vt 0.625000 0.257822
vt 0.617178 0.257822
vt 0.617495 0.235009
vt 0.610009 0.250000
vt 0.610009 0.242495
vt 0.617178 0.250000
vt 0.617178 0.242178
vt 0.360009 0.735009
vt 0.389991 0.735009
vt 0.389991 0.764991
vt 0.367495 0.735009
vt 0.360009 0.750000
vt 0.360009 0.742495
vt 0.367178 0.742178
vt 0.367178 0.750000
vt 0.389991 0.742495
vt 0.375000 0.735009
vt 0.382505 0.735009
vt 0.375000 0.742178
vt 0.382822 0.742178
vt 0.360009 0.747997
vt 0.360009 0.750000
vt 0.382505 0.764991
vt 0.389991 0.750000
vt 0.389991 0.757505
vt 0.367178 0.746052
vt 0.367178 0.750000
vt 0.382822 0.750000
vt 0.382822 0.757822
vt 0.639991 0.735009
vt 0.610009 0.764991
vt 0.610009 0.735009
vt 0.622997 0.764991
vt 0.625000 0.764991
vt 0.639991 0.742495
vt 0.625000 0.735009
vt 0.632505 0.735009
vt 0.632822 0.742178
vt 0.621052 0.757822
vt 0.625000 0.742178
vt 0.610009 0.757505
vt 0.625000 0.764991
vt 0.617495 0.764991
vt 0.625000 0.757822
vt 0.617178 0.757822
vt 0.617495 0.735009
vt 0.610009 0.750000
vt 0.610009 0.742495
vt 0.617178 0.750000
vt 0.617178 0.742178
vt 0.360009 0.514991
vt 0.389991 0.485009
vt 0.389991 0.514991
vt 0.360009 0.507505
vt 0.375000 0.514991
vt 0.367495 0.514991
vt 0.367178 0.507822
vt 0.375000 0.507822
vt 0.389991 0.492495
vt 0.382505 0.485009
vt 0.360009 0.500000
vt 0.367178 0.500000
vt 0.382822 0.492178
vt 0.382505 0.514991
vt 0.389991 0.500000
vt 0.389991 0.507505
vt 0.375000 0.507822
vt 0.382822 0.500000
vt 0.382822 0.507822
vt 0.639991 0.514991
vt 0.610009 0.514991
vt 0.610009 0.485009
vt 0.632505 0.514991
vt 0.639991 0.507505
vt 0.625000 0.485009
vt 0.621052 0.507822
vt 0.632822 0.507822
vt 0.625000 0.492178
vt 0.610009 0.507505
vt 0.625000 0.514991
vt 0.617495 0.514991
vt 0.625000 0.507822
vt 0.617178 0.507822
vt 0.617495 0.485009
vt 0.610009 0.500000
vt 0.610009 0.492495
vt 0.617178 0.500000
vt 0.617178 0.492178
s 0
usemtl PlayerTexture
f 62/114/1 2/2/1 51/93/1
f 86/154/2 50/92/2 75/136/2
f 37/70/3 61/113/3 85/153/3
f 15/28/4 26/49/4 3/3/4
f 38/71/5 74/135/5 27/50/5
f 4/4/6 5/6/6 1/1/6
f 8/13/7 6/7/7 4/4/7
f 7/11/8 8/12/8 2/2/8
f 11/20/9 9/16/9 7/9/9
f 10/19/10 11/21/10 3/3/10
f 10/17/11 6/8/11 12/22/11
f 6/7/12 9/14/12 12/23/12
f 16/29/13 17/30/13 13/26/13
f 16/29/14 21/39/14 18/32/14
f 19/36/15 20/37/15 14/27/15
f 23/43/16 21/41/16 19/34/16
f 22/42/17 23/44/17 15/28/17
f 17/31/18 24/47/18 22/42/18
f 18/32/19 21/39/19 24/45/19
f 28/51/20 29/53/20 25/48/20
f 32/58/21 30/54/21 28/51/21
f 31/56/22 32/57/22 26/49/22
f 35/64/23 33/60/23 31/56/23
f 34/63/24 35/65/24 27/50/24
f 34/61/25 30/55/25 36/66/25
f 30/54/26 33/59/26 36/67/26
f 40/75/27 41/76/27 37/70/27
f 44/82/28 42/79/28 40/73/28
f 43/81/29 44/83/29 38/71/29
f 47/87/30 45/85/30 43/81/30
f 46/86/31 47/88/31 39/72/31
f 46/86/32 42/80/32 48/90/32
f 42/79/33 45/84/33 48/89/33
f 52/94/34 53/96/34 49/91/34
f 56/100/35 54/97/35 52/94/35
f 55/99/36 56/101/36 50/92/36
f 59/107/37 57/103/37 55/99/37
f 58/106/38 59/108/38 51/93/38
f 58/104/39 54/98/39 60/109/39
f 54/97/40 57/102/40 60/110/40
f 64/118/41 65/120/41 61/113/41
f 68/125/42 66/122/42 64/116/42
f 67/124/43 68/126/43 62/114/43
f 71/130/44 69/128/44 67/124/44
f 70/129/45 71/131/45 63/115/45
f 70/129/46 66/123/46 72/133/46
f 66/122/47 69/127/47 72/132/47
f 76/137/48 77/139/48 73/134/48
f 80/144/49 78/140/49 76/137/49
f 79/142/50 80/143/50 74/135/50
f 83/148/51 81/146/51 79/142/51
f 82/147/52 83/149/52 75/136/52
f 82/147/53 78/141/53 84/152/53
f 78/140/54 81/145/54 84/150/54
f 88/156/55 89/157/55 85/153/55
f 92/163/56 90/160/56 88/156/56
f 91/162/57 92/164/57 86/154/57
f 95/168/58 93/166/58 91/162/58
f 94/167/59 95/169/59 87/155/59
f 94/167/60 90/161/60 96/171/60
f 90/159/61 93/165/61 96/170/61
f 1/1/62 28/51/62 25/48/62
f 5/6/63 32/58/63 28/51/63
f 10/19/64 26/49/64 32/57/64
f 13/26/65 7/11/65 2/2/65
f 17/31/66 11/21/66 7/10/66
f 22/42/67 3/3/67 11/21/67
f 37/70/68 19/36/68 14/27/68
f 41/77/69 23/44/69 19/35/69
f 46/86/70 15/28/70 23/44/70
f 27/50/71 43/81/71 38/71/71
f 35/65/72 47/88/72 43/81/72
f 31/56/73 39/72/73 47/88/73
f 25/48/74 76/137/74 73/134/74
f 29/53/75 80/144/75 76/137/75
f 34/63/76 74/135/76 80/143/76
f 85/153/77 40/75/77 37/70/77
f 89/158/78 44/83/78 40/74/78
f 94/167/79 38/71/79 44/83/79
f 75/136/80 91/162/80 86/154/80
f 83/149/81 95/169/81 91/162/81
f 79/142/82 87/155/82 95/169/82
f 73/134/83 52/94/83 49/91/83
f 77/139/84 56/101/84 52/94/84
f 82/147/85 50/92/85 56/101/85
f 61/113/86 88/156/86 85/153/86
f 65/120/87 92/164/87 88/156/87
f 70/129/88 86/154/88 92/164/88
f 51/93/89 67/124/89 62/114/89
f 59/108/90 71/131/90 67/124/90
f 55/99/91 63/115/91 71/131/91
f 49/91/92 4/4/92 1/1/92
f 53/96/93 8/13/93 4/4/93
f 58/106/94 2/2/94 8/12/94
f 14/27/95 64/118/95 61/113/95
f 20/38/96 68/126/96 64/117/96
f 16/29/97 62/114/97 68/126/97
f 73/134/98 1/1/98 25/48/98
f 62/114/1 13/26/1 2/2/1
f 86/154/2 63/115/2 50/92/2
f 37/70/3 14/27/3 61/113/3
f 15/28/4 39/72/4 26/49/4
f 38/71/5 87/155/5 74/135/5
f 4/4/99 6/7/99 5/6/99
f 8/13/7 9/14/7 6/7/7
f 7/11/100 9/15/100 8/12/100
f 11/20/9 12/24/9 9/16/9
f 10/19/101 12/25/101 11/21/101
f 10/17/11 5/5/11 6/8/11
f 16/29/102 18/32/102 17/30/102
f 16/29/14 20/38/14 21/39/14
f 19/36/103 21/40/103 20/37/103
f 23/43/16 24/46/16 21/41/16
f 22/42/104 24/47/104 23/44/104
f 17/31/18 18/33/18 24/47/18
f 28/51/105 30/54/105 29/53/105
f 32/58/21 33/59/21 30/54/21
f 31/56/106 33/60/106 32/57/106
f 35/64/23 36/68/23 33/60/23
f 34/63/107 36/69/107 35/65/107
f 34/61/25 29/52/25 30/55/25
f 40/75/108 42/78/108 41/76/108
f 44/82/28 45/84/28 42/79/28
f 43/81/109 45/85/109 44/83/109
f 47/87/30 48/89/30 45/85/30
f 46/86/110 48/90/110 47/88/110
f 46/86/32 41/77/32 42/80/32
f 52/94/111 54/97/111 53/96/111
f 56/100/35 57/102/35 54/97/35
f 55/99/112 57/103/112 56/101/112
f 59/107/37 60/111/37 57/103/37
f 58/106/113 60/112/113 59/108/113
f 58/104/39 53/95/39 54/98/39
f 64/118/114 66/121/114 65/120/114
f 68/125/42 69/127/42 66/122/42
f 67/124/115 69/128/115 68/126/115
f 71/130/44 72/132/44 69/128/44
f 70/129/116 72/133/116 71/131/116
f 70/129/46 65/119/46 66/123/46
f 76/137/117 78/140/117 77/139/117
f 80/144/49 81/145/49 78/140/49
f 79/142/118 81/146/118 80/143/118
f 83/148/51 84/151/51 81/146/51
f 82/147/119 84/152/119 83/149/119
f 82/147/53 77/138/53 78/141/53
f 88/156/120 90/160/120 89/157/120
f 92/163/56 93/165/56 90/160/56
f 91/162/121 93/166/121 92/164/121
f 95/168/58 96/170/58 93/166/58
f 94/167/122 96/171/122 95/169/122
f 94/167/60 89/158/60 90/161/60
f 1/1/62 5/6/62 28/51/62
f 5/6/63 10/18/63 32/58/63
f 10/19/64 3/3/64 26/49/64
f 13/26/65 17/30/65 7/11/65
f 17/31/66 22/42/66 11/21/66
f 22/42/67 15/28/67 3/3/67
f 37/70/68 41/76/68 19/36/68
f 41/77/69 46/86/69 23/44/69
f 46/86/70 39/72/70 15/28/70
f 27/50/71 35/65/71 43/81/71
f 35/65/72 31/56/72 47/88/72
f 31/56/73 26/49/73 39/72/73
f 25/48/74 29/53/74 76/137/74
f 29/53/75 34/62/75 80/144/75
f 34/63/76 27/50/76 74/135/76
f 85/153/77 89/157/77 40/75/77
f 89/158/78 94/167/78 44/83/78
f 94/167/79 87/155/79 38/71/79
f 75/136/80 83/149/80 91/162/80
f 83/149/81 79/142/81 95/169/81
f 79/142/82 74/135/82 87/155/82
f 73/134/83 77/139/83 52/94/83
f 77/139/84 82/147/84 56/101/84
f 82/147/85 75/136/85 50/92/85
f 61/113/86 65/120/86 88/156/86
f 65/120/87 70/129/87 92/164/87
f 70/129/88 63/115/88 86/154/88
f 51/93/89 59/108/89 67/124/89
f 59/108/90 55/99/90 71/131/90
f 55/99/91 50/92/91 63/115/91
f 49/91/92 53/96/92 4/4/92
f 53/96/93 58/105/93 8/13/93
f 58/106/94 51/93/94 2/2/94
f 14/27/95 20/37/95 64/118/95
f 20/38/96 16/29/96 68/126/96
f 16/29/97 13/26/97 62/114/97
f 73/134/98 49/91/98 1/1/98
