# Blender v3.3.1 OBJ File: 'Minesweeper3D.blend'
# www.blender.org
mtllib axes.mtl
o Axis
v 0.000000 0.050000 -5.000000
v 0.000000 0.050000 5.000000
v 0.047553 0.015451 -5.000000
v 0.047553 0.015451 5.000000
v 0.029389 -0.040451 -5.000000
v 0.029389 -0.040451 5.000000
v -0.029389 -0.040451 -5.000000
v -0.029389 -0.040451 5.000000
v -0.047553 0.015451 -5.000000
v -0.047553 0.015451 5.000000
v 0.000000 0.100000 4.750000
v 0.019509 0.098079 4.750000
v 0.038268 0.092388 4.750000
v 0.055557 0.083147 4.750000
v 0.070711 0.070711 4.750000
v 0.083147 0.055557 4.750000
v 0.092388 0.038268 4.750000
v 0.098079 0.019509 4.750000
v 0.100000 0.000000 4.750000
v 0.098079 -0.019509 4.750000
v 0.092388 -0.038268 4.750000
v 0.083147 -0.055557 4.750000
v 0.070711 -0.070711 4.750000
v 0.055557 -0.083147 4.750000
v 0.038268 -0.092388 4.750000
v 0.019509 -0.098079 4.750000
v 0.000000 -0.100000 4.750000
v -0.019509 -0.098079 4.750000
v -0.038268 -0.092388 4.750000
v -0.055557 -0.083147 4.750000
v -0.070711 -0.070711 4.750000
v -0.083147 -0.055557 4.750000
v -0.092388 -0.038268 4.750000
v -0.098079 -0.019509 4.750000
v -0.100000 0.000000 4.750000
v -0.098079 0.019509 4.750000
v -0.092388 0.038268 4.750000
v -0.083147 0.055557 4.750000
v -0.070711 0.070711 4.750000
v -0.055557 0.083147 4.750000
v -0.038268 0.092388 4.750000
v -0.019509 0.098079 4.750000
v 0.000000 0.000000 5.250000
v 0.000002 -5.000000 0.050000
v -0.000002 5.000000 0.050000
v -0.047551 -5.000000 0.015451
v -0.047554 5.000000 0.015451
v -0.029388 -5.000000 -0.040451
v -0.029391 5.000000 -0.040451
v 0.029391 -5.000000 -0.040451
v 0.029388 5.000000 -0.040451
v 0.047554 -5.000000 0.015451
v 0.047551 5.000000 0.015451
v -0.000002 4.750000 0.100000
v -0.019511 4.750000 0.098078
v -0.038270 4.750000 0.092388
v -0.055559 4.750000 0.083147
v -0.070712 4.750000 0.070710
v -0.083149 4.750000 0.055557
v -0.092390 4.750000 0.038268
v -0.098080 4.750000 0.019509
v -0.100002 4.750000 -0.000000
v -0.098080 4.750000 -0.019509
v -0.092390 4.750000 -0.038269
v -0.083149 4.750000 -0.055557
v -0.070712 4.750000 -0.070711
v -0.055559 4.750000 -0.083147
v -0.038270 4.750000 -0.092388
v -0.019511 4.750000 -0.098079
v -0.000002 4.750000 -0.100000
v 0.019507 4.750000 -0.098079
v 0.038267 4.750000 -0.092388
v 0.055555 4.750000 -0.083147
v 0.070709 4.750000 -0.070711
v 0.083145 4.750000 -0.055557
v 0.092386 4.750000 -0.038269
v 0.098077 4.750000 -0.019509
v 0.099998 4.750000 -0.000000
v 0.098077 4.750000 0.019509
v 0.092386 4.750000 0.038268
v 0.083145 4.750000 0.055557
v 0.070709 4.750000 0.070710
v 0.055555 4.750000 0.083147
v 0.038267 4.750000 0.092388
v 0.019507 4.750000 0.098078
v -0.000002 5.250000 -0.000000
v -5.000000 0.050000 -0.000000
v 5.000000 0.050000 0.000000
v -5.000000 0.015451 -0.047553
v 5.000000 0.015451 -0.047552
v -5.000000 -0.040451 -0.029390
v 5.000000 -0.040451 -0.029389
v -5.000000 -0.040451 0.029389
v 5.000000 -0.040451 0.029390
v -5.000000 0.015451 0.047552
v 5.000000 0.015451 0.047553
v 4.750000 0.100000 0.000000
v 4.750000 0.098079 -0.019509
v 4.750000 0.092388 -0.038268
v 4.750000 0.083147 -0.055557
v 4.750000 0.070711 -0.070710
v 4.750000 0.055557 -0.083147
v 4.750000 0.038268 -0.092388
v 4.750000 0.019509 -0.098078
v 4.750000 0.000000 -0.100000
v 4.750000 -0.019509 -0.098078
v 4.750000 -0.038268 -0.092388
v 4.750000 -0.055557 -0.083147
v 4.750000 -0.070711 -0.070710
v 4.750000 -0.083147 -0.055557
v 4.750000 -0.092388 -0.038268
v 4.750000 -0.098079 -0.019509
v 4.750000 -0.100000 0.000000
v 4.750000 -0.098079 0.019509
v 4.750000 -0.092388 0.038269
v 4.750000 -0.083147 0.055557
v 4.750000 -0.070711 0.070711
v 4.750000 -0.055557 0.083147
v 4.750000 -0.038268 0.092388
v 4.750000 -0.019509 0.098079
v 4.750000 0.000000 0.100000
v 4.750000 0.019509 0.098079
v 4.750000 0.038268 0.092388
v 4.750000 0.055557 0.083147
v 4.750000 0.070711 0.070711
v 4.750000 0.083147 0.055557
v 4.750000 0.092388 0.038269
v 4.750000 0.098079 0.019509
v 5.250000 0.000000 0.000000
vt 1.000000 0.500000
vt 1.000000 1.000000
vt 0.800000 1.000000
vt 0.800000 0.500000
vt 0.600000 1.000000
vt 0.600000 0.500000
vt 0.400000 1.000000
vt 0.400000 0.500000
vt 0.478254 0.324164
vt 0.250000 0.490000
vt 0.021746 0.324164
vt 0.108932 0.055836
vt 0.391068 0.055836
vt 0.200000 1.000000
vt 0.200000 0.500000
vt 0.000000 1.000000
vt 0.000000 0.500000
vt 0.750000 0.490000
vt 0.978254 0.324164
vt 0.891068 0.055836
vt 0.608932 0.055836
vt 0.521746 0.324164
vt 0.250000 0.490000
vt 0.250000 0.250000
vt 0.296822 0.485388
vt 0.341844 0.471731
vt 0.383337 0.449553
vt 0.419706 0.419706
vt 0.449553 0.383337
vt 0.471731 0.341844
vt 0.485388 0.296822
vt 0.490000 0.250000
vt 0.485388 0.203178
vt 0.471731 0.158156
vt 0.449553 0.116663
vt 0.419706 0.080294
vt 0.383337 0.050447
vt 0.341844 0.028269
vt 0.296822 0.014612
vt 0.250000 0.010000
vt 0.203178 0.014612
vt 0.158156 0.028269
vt 0.116663 0.050447
vt 0.080294 0.080294
vt 0.050447 0.116663
vt 0.028269 0.158156
vt 0.014612 0.203178
vt 0.010000 0.250000
vt 0.014612 0.296822
vt 0.028269 0.341844
vt 0.050447 0.383337
vt 0.080294 0.419706
vt 0.116663 0.449553
vt 0.158156 0.471731
vt 0.750000 0.490000
vt 0.796822 0.485388
vt 0.841844 0.471731
vt 0.883337 0.449553
vt 0.919706 0.419706
vt 0.949553 0.383337
vt 0.971731 0.341844
vt 0.985388 0.296822
vt 0.990000 0.250000
vt 0.985388 0.203178
vt 0.971731 0.158156
vt 0.949553 0.116663
vt 0.919706 0.080294
vt 0.883337 0.050447
vt 0.841844 0.028269
vt 0.796822 0.014612
vt 0.750000 0.010000
vt 0.703178 0.014612
vt 0.658156 0.028269
vt 0.616663 0.050447
vt 0.580294 0.080294
vt 0.550447 0.116663
vt 0.528269 0.158156
vt 0.514612 0.203178
vt 0.510000 0.250000
vt 0.514612 0.296822
vt 0.528269 0.341844
vt 0.550447 0.383337
vt 0.580294 0.419706
vt 0.616663 0.449553
vt 0.658156 0.471731
vt 0.703178 0.485388
vt 0.203178 0.485388
vt 1.000000 0.500000
vt 1.000000 1.000000
vt 0.800000 1.000000
vt 0.800000 0.500000
vt 0.600000 1.000000
vt 0.600000 0.500000
vt 0.400000 1.000000
vt 0.400000 0.500000
vt 0.478254 0.324164
vt 0.250000 0.490000
vt 0.021746 0.324164
vt 0.108932 0.055836
vt 0.391068 0.055836
vt 0.200000 1.000000
vt 0.200000 0.500000
vt 0.000000 1.000000
vt 0.000000 0.500000
vt 0.750000 0.490000
vt 0.978254 0.324164
vt 0.891068 0.055836
vt 0.608932 0.055836
vt 0.521746 0.324164
vt 0.250000 0.490000
vt 0.250000 0.250000
vt 0.296822 0.485388
vt 0.341844 0.471731
vt 0.383337 0.449553
vt 0.419706 0.419706
vt 0.449553 0.383337
vt 0.471731 0.341844
vt 0.485388 0.296822
vt 0.490000 0.250000
vt 0.485388 0.203178
vt 0.471731 0.158156
vt 0.449553 0.116663
vt 0.419706 0.080294
vt 0.383337 0.050447
vt 0.341844 0.028269
vt 0.296822 0.014612
vt 0.250000 0.010000
vt 0.203178 0.014612
vt 0.158156 0.028269
vt 0.116663 0.050447
vt 0.080294 0.080294
vt 0.050447 0.116663
vt 0.028269 0.158156
vt 0.014612 0.203178
vt 0.010000 0.250000
vt 0.014612 0.296822
vt 0.028269 0.341844
vt 0.050447 0.383337
vt 0.080294 0.419706
vt 0.116663 0.449553
vt 0.158156 0.471731
vt 0.750000 0.490000
vt 0.796822 0.485388
vt 0.841844 0.471731
vt 0.883337 0.449553
vt 0.919706 0.419706
vt 0.949553 0.383337
vt 0.971731 0.341844
vt 0.985388 0.296822
vt 0.990000 0.250000
vt 0.985388 0.203178
vt 0.971731 0.158156
vt 0.949553 0.116663
vt 0.919706 0.080294
vt 0.883337 0.050447
vt 0.841844 0.028269
vt 0.796822 0.014612
vt 0.750000 0.010000
vt 0.703178 0.014612
vt 0.658156 0.028269
vt 0.616663 0.050447
vt 0.580294 0.080294
vt 0.550447 0.116663
vt 0.528269 0.158156
vt 0.514612 0.203178
vt 0.510000 0.250000
vt 0.514612 0.296822
vt 0.528269 0.341844
vt 0.550447 0.383337
vt 0.580294 0.419706
vt 0.616663 0.449553
vt 0.658156 0.471731
vt 0.703178 0.485388
vt 0.203178 0.485388
vt 1.000000 0.500000
vt 1.000000 1.000000
vt 0.800000 1.000000
vt 0.800000 0.500000
vt 0.600000 1.000000
vt 0.600000 0.500000
vt 0.400000 1.000000
vt 0.400000 0.500000
vt 0.478254 0.324164
vt 0.250000 0.490000
vt 0.021746 0.324164
vt 0.108932 0.055836
vt 0.391068 0.055836
vt 0.200000 1.000000
vt 0.200000 0.500000
vt 0.000000 1.000000
vt 0.000000 0.500000
vt 0.750000 0.490000
vt 0.978254 0.324164
vt 0.891068 0.055836
vt 0.608932 0.055836
vt 0.521746 0.324164
vt 0.250000 0.490000
vt 0.250000 0.250000
vt 0.296822 0.485388
vt 0.341844 0.471731
vt 0.383337 0.449553
vt 0.419706 0.419706
vt 0.449553 0.383337
vt 0.471731 0.341844
vt 0.485388 0.296822
vt 0.490000 0.250000
vt 0.485388 0.203178
vt 0.471731 0.158156
vt 0.449553 0.116663
vt 0.419706 0.080294
vt 0.383337 0.050447
vt 0.341844 0.028269
vt 0.296822 0.014612
vt 0.250000 0.010000
vt 0.203178 0.014612
vt 0.158156 0.028269
vt 0.116663 0.050447
vt 0.080294 0.080294
vt 0.050447 0.116663
vt 0.028269 0.158156
vt 0.014612 0.203178
vt 0.010000 0.250000
vt 0.014612 0.296822
vt 0.028269 0.341844
vt 0.050447 0.383337
vt 0.080294 0.419706
vt 0.116663 0.449553
vt 0.158156 0.471731
vt 0.750000 0.490000
vt 0.796822 0.485388
vt 0.841844 0.471731
vt 0.883337 0.449553
vt 0.919706 0.419706
vt 0.949553 0.383337
vt 0.971731 0.341844
vt 0.985388 0.296822
vt 0.990000 0.250000
vt 0.985388 0.203178
vt 0.971731 0.158156
vt 0.949553 0.116663
vt 0.919706 0.080294
vt 0.883337 0.050447
vt 0.841844 0.028269
vt 0.796822 0.014612
vt 0.750000 0.010000
vt 0.703178 0.014612
vt 0.658156 0.028269
vt 0.616663 0.050447
vt 0.580294 0.080294
vt 0.550447 0.116663
vt 0.528269 0.158156
vt 0.514612 0.203178
vt 0.510000 0.250000
vt 0.514612 0.296822
vt 0.528269 0.341844
vt 0.550447 0.383337
vt 0.580294 0.419706
vt 0.616663 0.449553
vt 0.658156 0.471731
vt 0.703178 0.485388
vt 0.203178 0.485388
vn 0.0000 0.8090 -0.5878
vn 0.0000 -0.3090 -0.9511
vn 0.0000 -1.0000 0.0000
vn 1.0000 -0.0000 0.0000
vn -0.0000 -0.3090 0.9511
vn -0.0000 0.8090 0.5878
vn -1.0000 0.0000 0.0000
vn 0.1952 0.9760 -0.0961
vn 0.1952 0.9385 -0.2847
vn 0.1952 0.8650 -0.4623
vn 0.1952 0.7581 -0.6222
vn 0.1952 0.6222 -0.7581
vn 0.1952 0.4623 -0.8650
vn 0.1952 0.2847 -0.9385
vn 0.1952 0.0961 -0.9760
vn 0.1952 -0.0961 -0.9760
vn 0.1952 -0.2847 -0.9385
vn 0.1952 -0.4623 -0.8650
vn 0.1952 -0.6222 -0.7581
vn 0.1952 -0.7581 -0.6222
vn 0.1952 -0.8650 -0.4623
vn 0.1952 -0.9385 -0.2847
vn 0.1952 -0.9760 -0.0961
vn 0.1952 -0.9760 0.0961
vn 0.1952 -0.9385 0.2847
vn 0.1952 -0.8650 0.4623
vn 0.1952 -0.7581 0.6222
vn 0.1952 -0.6222 0.7581
vn 0.1952 -0.4623 0.8650
vn 0.1952 -0.2847 0.9385
vn 0.1952 -0.0961 0.9760
vn 0.1952 0.0961 0.9760
vn 0.1952 0.2847 0.9385
vn 0.1952 0.4623 0.8650
vn 0.1952 0.6222 0.7581
vn 0.1952 0.7581 0.6222
vn 0.1952 0.8650 0.4623
vn 0.1952 0.9385 0.2847
vn 0.1952 0.9760 0.0961
vn -0.5878 -0.0000 0.8090
vn -0.9511 -0.0000 -0.3090
vn 0.0000 -0.0000 -1.0000
vn 0.0000 1.0000 0.0000
vn 0.9511 0.0000 -0.3090
vn 0.5878 0.0000 0.8090
vn -0.0961 0.1952 0.9760
vn -0.2847 0.1952 0.9385
vn -0.4623 0.1952 0.8650
vn -0.6222 0.1952 0.7581
vn -0.7581 0.1952 0.6222
vn -0.8650 0.1952 0.4623
vn -0.9385 0.1952 0.2847
vn -0.9760 0.1952 0.0961
vn -0.9760 0.1952 -0.0961
vn -0.9385 0.1952 -0.2847
vn -0.8650 0.1952 -0.4623
vn -0.7581 0.1952 -0.6222
vn -0.6222 0.1952 -0.7581
vn -0.4623 0.1952 -0.8650
vn -0.2847 0.1952 -0.9385
vn -0.0961 0.1952 -0.9760
vn 0.0961 0.1952 -0.9760
vn 0.2847 0.1952 -0.9385
vn 0.4623 0.1952 -0.8650
vn 0.6222 0.1952 -0.7581
vn 0.7581 0.1952 -0.6222
vn 0.8650 0.1952 -0.4623
vn 0.9385 0.1952 -0.2847
vn 0.9760 0.1952 -0.0961
vn 0.9760 0.1952 0.0961
vn 0.9385 0.1952 0.2847
vn 0.8650 0.1952 0.4623
vn 0.7581 0.1952 0.6222
vn 0.6222 0.1952 0.7581
vn 0.4623 0.1952 0.8650
vn 0.2847 0.1952 0.9385
vn 0.0961 0.1952 0.9760
vn 0.5878 0.8090 0.0000
vn 0.9511 -0.3090 0.0000
vn 0.0000 0.0000 1.0000
vn -0.9511 -0.3090 0.0000
vn -0.5878 0.8090 0.0000
vn 0.0961 0.9760 0.1952
vn 0.2847 0.9385 0.1952
vn 0.4623 0.8650 0.1952
vn 0.6222 0.7581 0.1952
vn 0.7581 0.6222 0.1952
vn 0.8650 0.4623 0.1952
vn 0.9385 0.2847 0.1952
vn 0.9760 0.0961 0.1952
vn 0.9760 -0.0961 0.1952
vn 0.9385 -0.2847 0.1952
vn 0.8650 -0.4623 0.1952
vn 0.7581 -0.6222 0.1952
vn 0.6222 -0.7581 0.1952
vn 0.4623 -0.8650 0.1952
vn 0.2847 -0.9385 0.1952
vn 0.0961 -0.9760 0.1952
vn -0.0961 -0.9760 0.1952
vn -0.2847 -0.9385 0.1952
vn -0.4623 -0.8650 0.1952
vn -0.6222 -0.7581 0.1952
vn -0.7581 -0.6222 0.1952
vn -0.8650 -0.4623 0.1952
vn -0.9385 -0.2847 0.1952
vn -0.9760 -0.0961 0.1952
vn -0.9760 0.0961 0.1952
vn -0.9385 0.2847 0.1952
vn -0.8650 0.4623 0.1952
vn -0.7581 0.6222 0.1952
vn -0.6222 0.7581 0.1952
vn -0.4623 0.8650 0.1952
vn -0.2847 0.9385 0.1952
vn -0.0961 0.9760 0.1952
usemtl x_axis
s off
f 87/1/1 88/2/1 90/3/1 89/4/1
f 89/4/2 90/3/2 92/5/2 91/6/2
f 91/6/3 92/5/3 94/7/3 93/8/3
f 90/9/4 88/10/4 96/11/4 94/12/4 92/13/4
f 93/8/5 94/7/5 96/14/5 95/15/5
f 95/15/6 96/14/6 88/16/6 87/17/6
f 87/18/7 89/19/7 91/20/7 93/21/7 95/22/7
f 97/23/8 129/24/8 98/25/8
f 98/25/9 129/24/9 99/26/9
f 99/26/10 129/24/10 100/27/10
f 100/27/11 129/24/11 101/28/11
f 101/28/12 129/24/12 102/29/12
f 102/29/13 129/24/13 103/30/13
f 103/30/14 129/24/14 104/31/14
f 104/31/15 129/24/15 105/32/15
f 105/32/16 129/24/16 106/33/16
f 106/33/17 129/24/17 107/34/17
f 107/34/18 129/24/18 108/35/18
f 108/35/19 129/24/19 109/36/19
f 109/36/20 129/24/20 110/37/20
f 110/37/21 129/24/21 111/38/21
f 111/38/22 129/24/22 112/39/22
f 112/39/23 129/24/23 113/40/23
f 113/40/24 129/24/24 114/41/24
f 114/41/25 129/24/25 115/42/25
f 115/42/26 129/24/26 116/43/26
f 116/43/27 129/24/27 117/44/27
f 117/44/28 129/24/28 118/45/28
f 118/45/29 129/24/29 119/46/29
f 119/46/30 129/24/30 120/47/30
f 120/47/31 129/24/31 121/48/31
f 121/48/32 129/24/32 122/49/32
f 122/49/33 129/24/33 123/50/33
f 123/50/34 129/24/34 124/51/34
f 124/51/35 129/24/35 125/52/35
f 125/52/36 129/24/36 126/53/36
f 126/53/37 129/24/37 127/54/37
f 97/55/7 98/56/7 99/57/7 100/58/7 101/59/7 102/60/7 103/61/7 104/62/7 105/63/7 106/64/7 107/65/7 108/66/7 109/67/7 110/68/7 111/69/7 112/70/7 113/71/7 114/72/7 115/73/7 116/74/7 117/75/7 118/76/7 119/77/7 120/78/7 121/79/7 122/80/7 123/81/7 124/82/7 125/83/7 126/84/7 127/85/7 128/86/7
f 127/54/38 129/24/38 128/87/38
f 128/87/39 129/24/39 97/23/39
usemtl y_axis
f 44/88/40 45/89/40 47/90/40 46/91/40
f 46/91/41 47/90/41 49/92/41 48/93/41
f 48/93/42 49/92/42 51/94/42 50/95/42
f 47/96/43 45/97/43 53/98/43 51/99/43 49/100/43
f 50/95/44 51/94/44 53/101/44 52/102/44
f 52/102/45 53/101/45 45/103/45 44/104/45
f 44/105/3 46/106/3 48/107/3 50/108/3 52/109/3
f 54/110/46 86/111/46 55/112/46
f 55/112/47 86/111/47 56/113/47
f 56/113/48 86/111/48 57/114/48
f 57/114/49 86/111/49 58/115/49
f 58/115/50 86/111/50 59/116/50
f 59/116/51 86/111/51 60/117/51
f 60/117/52 86/111/52 61/118/52
f 61/118/53 86/111/53 62/119/53
f 62/119/54 86/111/54 63/120/54
f 63/120/55 86/111/55 64/121/55
f 64/121/56 86/111/56 65/122/56
f 65/122/57 86/111/57 66/123/57
f 66/123/58 86/111/58 67/124/58
f 67/124/59 86/111/59 68/125/59
f 68/125/60 86/111/60 69/126/60
f 69/126/61 86/111/61 70/127/61
f 70/127/62 86/111/62 71/128/62
f 71/128/63 86/111/63 72/129/63
f 72/129/64 86/111/64 73/130/64
f 73/130/65 86/111/65 74/131/65
f 74/131/66 86/111/66 75/132/66
f 75/132/67 86/111/67 76/133/67
f 76/133/68 86/111/68 77/134/68
f 77/134/69 86/111/69 78/135/69
f 78/135/70 86/111/70 79/136/70
f 79/136/71 86/111/71 80/137/71
f 80/137/72 86/111/72 81/138/72
f 81/138/73 86/111/73 82/139/73
f 82/139/74 86/111/74 83/140/74
f 83/140/75 86/111/75 84/141/75
f 54/142/3 55/143/3 56/144/3 57/145/3 58/146/3 59/147/3 60/148/3 61/149/3 62/150/3 63/151/3 64/152/3 65/153/3 66/154/3 67/155/3 68/156/3 69/157/3 70/158/3 71/159/3 72/160/3 73/161/3 74/162/3 75/163/3 76/164/3 77/165/3 78/166/3 79/167/3 80/168/3 81/169/3 82/170/3 83/171/3 84/172/3 85/173/3
f 84/141/76 86/111/76 85/174/76
f 85/174/77 86/111/77 54/110/77
usemtl z_axis
f 1/175/78 2/176/78 4/177/78 3/178/78
f 3/178/79 4/177/79 6/179/79 5/180/79
f 5/180/3 6/179/3 8/181/3 7/182/3
f 4/183/80 2/184/80 10/185/80 8/186/80 6/187/80
f 7/182/81 8/181/81 10/188/81 9/189/81
f 9/189/82 10/188/82 2/190/82 1/191/82
f 1/192/42 3/193/42 5/194/42 7/195/42 9/196/42
f 11/197/83 43/198/83 12/199/83
f 12/199/84 43/198/84 13/200/84
f 13/200/85 43/198/85 14/201/85
f 14/201/86 43/198/86 15/202/86
f 15/202/87 43/198/87 16/203/87
f 16/203/88 43/198/88 17/204/88
f 17/204/89 43/198/89 18/205/89
f 18/205/90 43/198/90 19/206/90
f 19/206/91 43/198/91 20/207/91
f 20/207/92 43/198/92 21/208/92
f 21/208/93 43/198/93 22/209/93
f 22/209/94 43/198/94 23/210/94
f 23/210/95 43/198/95 24/211/95
f 24/211/96 43/198/96 25/212/96
f 25/212/97 43/198/97 26/213/97
f 26/213/98 43/198/98 27/214/98
f 27/214/99 43/198/99 28/215/99
f 28/215/100 43/198/100 29/216/100
f 29/216/101 43/198/101 30/217/101
f 30/217/102 43/198/102 31/218/102
f 31/218/103 43/198/103 32/219/103
f 32/219/104 43/198/104 33/220/104
f 33/220/105 43/198/105 34/221/105
f 34/221/106 43/198/106 35/222/106
f 35/222/107 43/198/107 36/223/107
f 36/223/108 43/198/108 37/224/108
f 37/224/109 43/198/109 38/225/109
f 38/225/110 43/198/110 39/226/110
f 39/226/111 43/198/111 40/227/111
f 40/227/112 43/198/112 41/228/112
f 11/229/42 12/230/42 13/231/42 14/232/42 15/233/42 16/234/42 17/235/42 18/236/42 19/237/42 20/238/42 21/239/42 22/240/42 23/241/42 24/242/42 25/243/42 26/244/42 27/245/42 28/246/42 29/247/42 30/248/42 31/249/42 32/250/42 33/251/42 34/252/42 35/253/42 36/254/42 37/255/42 38/256/42 39/257/42 40/258/42 41/259/42 42/260/42
f 41/228/113 43/198/113 42/261/113
f 42/261/114 43/198/114 11/197/114
