# Blender 3.3.0
# www.blender.org
mtllib PlayerAlternative.mtl
o Player
v -0.440037 -0.440037 0.500000
v -0.440037 -0.500000 0.559963
v -0.500000 -0.440037 0.559963
v -0.440037 -0.469979 0.508011
v -0.469979 -0.440037 0.508011
v -0.468712 -0.468712 0.515792
v -0.469979 -0.491989 0.559963
v -0.440037 -0.491989 0.530021
v -0.468712 -0.484208 0.531288
v -0.491989 -0.440037 0.530021
v -0.491989 -0.469979 0.559963
v -0.484208 -0.468712 0.531288
v -0.440037 -0.500000 1.440037
v -0.440037 -0.440037 1.500000
v -0.500000 -0.440037 1.440037
v -0.440037 -0.491989 1.469979
v -0.469979 -0.491989 1.440037
v -0.468712 -0.484208 1.468712
v -0.469979 -0.440037 1.491989
v -0.440037 -0.469979 1.491989
v -0.468712 -0.468712 1.484208
v -0.491989 -0.469979 1.440037
v -0.491989 -0.440037 1.469979
v -0.484208 -0.468712 1.468712
v -0.440037 0.440037 0.500000
v -0.500000 0.440037 0.559963
v -0.440037 0.500000 0.559963
v -0.469979 0.440037 0.508011
v -0.440037 0.469979 0.508011
v -0.468712 0.468712 0.515792
v -0.491989 0.469979 0.559963
v -0.491989 0.440037 0.530021
v -0.484208 0.468712 0.531288
v -0.440037 0.491989 0.530021
v -0.469979 0.491989 0.559963
v -0.468712 0.484208 0.531288
v -0.440037 0.440037 1.500000
v -0.440037 0.500000 1.440037
v -0.500000 0.440037 1.440037
v -0.440037 0.469979 1.491989
v -0.469979 0.440037 1.491989
v -0.468712 0.468712 1.484208
v -0.469979 0.491989 1.440037
v -0.440037 0.491989 1.469979
v -0.468712 0.484208 1.468712
v -0.491989 0.440037 1.469979
v -0.491989 0.469979 1.440037
v -0.484208 0.468712 1.468712
v 0.440037 -0.440037 0.500000
v 0.500000 -0.440037 0.559963
v 0.440037 -0.500000 0.559963
v 0.469979 -0.440037 0.508011
v 0.440037 -0.469979 0.508011
v 0.468712 -0.468712 0.515792
v 0.491989 -0.469979 0.559963
v 0.491989 -0.440037 0.530021
v 0.484208 -0.468712 0.531288
v 0.440037 -0.491989 0.530021
v 0.469979 -0.491989 0.559963
v 0.468712 -0.484208 0.531288
v 0.440037 -0.440037 1.500000
v 0.440037 -0.500000 1.440037
v 0.500000 -0.440037 1.440037
v 0.440037 -0.469979 1.491989
v 0.469979 -0.440037 1.491989
v 0.468712 -0.468712 1.484208
v 0.469979 -0.491989 1.440037
v 0.440037 -0.491989 1.469979
v 0.468712 -0.484208 1.468712
v 0.491989 -0.440037 1.469979
v 0.491989 -0.469979 1.440037
v 0.484208 -0.468712 1.468712
v 0.440037 0.440037 0.500000
v 0.440037 0.500000 0.559963
v 0.500000 0.440037 0.559963
v 0.440037 0.469979 0.508011
v 0.469979 0.440037 0.508011
v 0.468712 0.468712 0.515792
v 0.469979 0.491989 0.559963
v 0.440037 0.491989 0.530021
v 0.468712 0.484208 0.531288
v 0.491989 0.440037 0.530021
v 0.491989 0.469979 0.559963
v 0.484208 0.468712 0.531288
v 0.440037 0.440037 1.500000
v 0.500000 0.440037 1.440037
v 0.440037 0.500000 1.440037
v 0.469979 0.440037 1.491989
v 0.440037 0.469979 1.491989
v 0.468712 0.468712 1.484208
v 0.491989 0.469979 1.440037
v 0.491989 0.440037 1.469979
v 0.484208 0.468712 1.468712
v 0.440037 0.491989 1.469979
v 0.469979 0.491989 1.440037
v 0.468712 0.484208 1.468712
vn -0.0000 -1.0000 -0.0000
vn 1.0000 -0.0000 -0.0000
vn -0.0000 -0.0000 1.0000
vn -1.0000 -0.0000 -0.0000
vn -0.0000 1.0000 -0.0000
vn -0.2566 -0.2566 -0.9318
vn -0.2178 -0.6901 -0.6901
vn -0.2566 -0.9318 -0.2566
vn -0.6901 -0.6901 -0.2178
vn -0.9318 -0.2566 -0.2566
vn -0.6901 -0.2178 -0.6901
vn -0.5774 -0.5773 -0.5773
vn -0.2566 -0.9318 0.2566
vn -0.2178 -0.6901 0.6901
vn -0.2566 -0.2566 0.9318
vn -0.6901 -0.2178 0.6901
vn -0.9318 -0.2566 0.2566
vn -0.6901 -0.6901 0.2178
vn -0.5774 -0.5774 0.5774
vn -0.2566 0.2566 -0.9318
vn -0.6901 0.2178 -0.6901
vn -0.9318 0.2566 -0.2566
vn -0.6901 0.6901 -0.2178
vn -0.2566 0.9318 -0.2566
vn -0.2178 0.6901 -0.6901
vn -0.5774 0.5773 -0.5773
vn -0.2566 0.2566 0.9318
vn -0.2178 0.6901 0.6901
vn -0.2566 0.9318 0.2566
vn -0.6901 0.6901 0.2178
vn -0.9318 0.2566 0.2566
vn -0.6901 0.2178 0.6901
vn -0.5774 0.5774 0.5774
vn 0.2566 -0.2566 -0.9318
vn 0.6901 -0.2178 -0.6901
vn 0.9318 -0.2566 -0.2566
vn 0.6901 -0.6901 -0.2178
vn 0.2566 -0.9318 -0.2566
vn 0.2178 -0.6901 -0.6901
vn 0.5774 -0.5773 -0.5773
vn 0.2566 -0.2566 0.9318
vn 0.2178 -0.6901 0.6901
vn 0.2566 -0.9318 0.2566
vn 0.6901 -0.6901 0.2178
vn 0.9318 -0.2566 0.2566
vn 0.6901 -0.2178 0.6901
vn 0.5774 -0.5774 0.5774
vn 0.2566 0.2566 -0.9318
vn 0.2178 0.6901 -0.6901
vn 0.2566 0.9318 -0.2566
vn 0.6901 0.6901 -0.2178
vn 0.9318 0.2566 -0.2566
vn 0.6901 0.2178 -0.6901
vn 0.5774 0.5773 -0.5773
vn 0.2566 0.2566 0.9318
vn 0.6901 0.2178 0.6901
vn 0.9318 0.2566 0.2566
vn 0.6901 0.6901 0.2178
vn 0.2566 0.9318 0.2566
vn 0.2178 0.6901 0.6901
vn 0.5774 0.5774 0.5774
vn -0.2585 -0.0000 -0.9660
vn -0.7071 -0.0000 -0.7071
vn -0.9660 -0.0000 -0.2585
vn -0.2585 -0.9660 -0.0000
vn -0.7071 -0.7071 -0.0000
vn -0.9660 -0.2585 -0.0000
vn -0.2585 -0.0000 0.9660
vn -0.7071 -0.0000 0.7071
vn -0.9660 -0.0000 0.2585
vn -0.2585 0.9660 -0.0000
vn -0.7071 0.7071 -0.0000
vn -0.9660 0.2585 -0.0000
vn -0.0000 0.2585 -0.9660
vn -0.0000 0.7071 -0.7071
vn -0.0000 0.9660 -0.2585
vn -0.0000 0.2585 0.9660
vn -0.0000 0.7071 0.7071
vn -0.0000 0.9660 0.2585
vn 0.9660 0.2585 -0.0000
vn 0.7071 0.7071 -0.0000
vn 0.2585 0.9660 -0.0000
vn 0.2585 -0.0000 -0.9660
vn 0.7071 -0.0000 -0.7071
vn 0.9660 -0.0000 -0.2585
vn 0.2585 -0.0000 0.9660
vn 0.7071 -0.0000 0.7071
vn 0.9660 -0.0000 0.2585
vn 0.2585 -0.9660 -0.0000
vn 0.7071 -0.7071 -0.0000
vn 0.9660 -0.2585 -0.0000
vn -0.0000 -0.2585 -0.9660
vn -0.0000 -0.7071 -0.7071
vn -0.0000 -0.9660 -0.2585
vn -0.0000 -0.2585 0.9660
vn -0.0000 -0.7071 0.7071
vn -0.0000 -0.9660 0.2585
vn -0.0000 -0.0000 -1.0000
vt 0.139991 0.735009
vt 0.704443 0.869167
vt -0.003163 0.220796
vt 0.079197 0.200403
vt 0.788661 0.953385
vt 1.000000 0.162219
vt 0.788661 0.626614
vt 0.918405 0.687992
vt 0.704443 0.871689
vt 0.699393 0.869167
vt 0.132505 0.735009
vt 0.701921 0.869167
vt 0.702028 0.871582
vt 0.918717 0.688006
vt 0.699393 0.871582
vt 0.893929 0.682371
vt 0.788661 0.955907
vt 0.890156 0.693259
vt 0.918405 0.687665
vt 0.704443 0.874217
vt 0.786139 0.953385
vt 0.918717 0.687665
vt 0.786245 0.955800
vt 0.890261 0.693201
vt 0.893929 0.682256
vt 0.700067 0.869167
vt 0.699393 0.869167
vt 0.786139 0.626614
vt 0.890156 0.693259
vt 0.890156 0.693149
vt 0.788661 0.624092
vt 0.890261 0.693259
vt 0.786245 0.624199
vt 0.700723 0.871582
vt 0.894044 0.682371
vt 0.049519 0.817797
vt 0.862778 0.953385
vt 0.078878 0.227300
vt 0.946996 0.869167
vt 1.000000 0.837781
vt 0.897936 0.719674
vt 0.862778 0.626614
vt 0.865300 0.953385
vt 0.897936 0.720327
vt 0.862778 0.955907
vt 0.886928 0.693259
vt 0.865193 0.955800
vt 0.897624 0.720327
vt 0.617178 0.992178
vt 0.897371 0.719674
vt 0.949518 0.869167
vt 0.867828 0.626614
vt 0.946996 0.871689
vt 0.867828 0.953385
vt 0.867828 0.955800
vt 0.949411 0.871582
vt 0.897455 0.719986
vt 0.625000 0.992178
vt 0.897936 0.720000
vt 0.886928 0.693149
vt 0.862778 0.624092
vt 0.897283 0.719674
vt 0.897610 0.719674
vt 0.865300 0.626614
vt 0.897283 0.719986
vt 0.897624 0.719986
vt 0.617178 1.000000
vt 0.630065 0.972007
vt 0.139991 0.514991
vt -0.003163 0.000778
vt 0.000000 0.162219
vt 0.676825 0.919639
vt 0.788661 0.700731
vt 0.925481 0.198691
vt 0.676825 0.925247
vt 0.788661 0.710832
vt 0.874469 0.583576
vt 0.628665 0.972007
vt 0.132505 0.514991
vt 0.701921 0.795050
vt 0.630065 0.970607
vt 0.630065 0.969203
vt 0.139991 0.507505
vt 0.755109 0.699361
vt 0.628725 0.969203
vt 0.628725 0.970666
vt 0.676825 0.921040
vt 0.788661 0.703253
vt 0.627262 0.972007
vt 0.675425 0.919639
vt 0.699393 0.795050
vt 0.786139 0.700731
vt 0.675484 0.920980
vt 0.627262 0.970666
vt 0.675425 0.925247
vt 0.630065 0.969578
vt 0.755109 0.695778
vt 0.870895 0.583576
vt 0.676825 0.922443
vt 0.676825 0.923847
vt 0.788661 0.708310
vt 0.675484 0.922443
vt 0.675484 0.923906
vt 0.628725 0.969941
vt 0.628725 0.969203
vt 0.078878 0.819875
vt 0.946996 0.795050
vt 0.962399 0.818749
vt 0.862778 0.710832
vt 0.000000 0.837781
vt 0.862778 0.700731
vt 0.867154 0.710832
vt 0.946996 0.792528
vt 0.867828 0.710832
vt 0.949518 0.795050
vt 0.867828 0.700731
vt 0.949411 0.792634
vt 0.867828 0.703147
vt 0.866498 0.708417
vt 0.862778 0.708310
vt 0.867828 0.710832
vt 0.865300 0.710832
vt 0.865193 0.708417
vt 0.867828 0.708417
vt 0.865300 0.700731
vt 0.862778 0.705782
vt 0.862778 0.703253
vt 0.865193 0.703147
vt 0.865193 0.705782
vt 0.585686 0.911845
vt 0.360009 0.735009
vt 0.778560 0.869167
vt 0.216855 0.220796
vt 0.061732 0.217295
vt 0.592670 0.911845
vt 0.874469 0.807980
vt 0.529654 0.916635
vt 0.933747 0.199930
vt 0.592670 0.918829
vt 0.529654 0.946617
vt 0.788661 0.879267
vt 0.587429 0.911845
vt 0.367495 0.735009
vt 0.863729 0.807980
vt 0.585686 0.913589
vt 0.585686 0.915337
vt 0.778560 0.871689
vt 0.587356 0.915337
vt 0.587356 0.913515
vt 0.592670 0.913589
vt 0.625202 0.955896
vt 0.529654 0.924121
vt 0.589178 0.911845
vt 0.590926 0.911845
vt 0.870895 0.807980
vt 0.591000 0.913515
vt 0.623532 0.955822
vt 0.589178 0.913515
vt 0.590926 0.918829
vt 0.585686 0.914871
vt 0.778560 0.874217
vt 0.786139 0.879267
vt 0.625202 0.957644
vt 0.592670 0.917085
vt 0.529654 0.939130
vt 0.623532 0.957644
vt 0.591000 0.917159
vt 0.587356 0.914418
vt 0.587356 0.915337
vt 0.956038 0.227300
vt 0.639991 0.735009
vt 0.872878 0.869167
vt 0.963067 0.818484
vt 0.749672 0.946617
vt 0.862778 0.879267
vt 0.055389 0.818452
vt 0.610009 0.735009
vt 0.862778 0.869167
vt 0.749672 0.916635
vt 0.639991 0.742495
vt 0.762660 0.946617
vt 0.872878 0.871689
vt 0.867828 0.879267
vt 0.632505 0.735009
vt 0.764663 0.916635
vt 0.870357 0.869167
vt 0.632822 0.742178
vt 0.764663 0.923804
vt 0.760715 0.939447
vt 0.749672 0.939130
vt 0.764663 0.946617
vt 0.757158 0.946617
vt 0.865300 0.879267
vt 0.756841 0.939447
vt 0.764663 0.939447
vt 0.617495 0.735009
vt 0.757158 0.916635
vt 0.865300 0.869167
vt 0.749672 0.931626
vt 0.610009 0.742495
vt 0.749672 0.924121
vt 0.617178 0.742178
vt 0.756841 0.923804
vt 0.756841 0.931626
vt 0.360009 0.514991
vt 0.216855 0.000778
vt 0.084194 0.201172
vt 0.874469 0.688621
vt 0.951594 0.221581
vt 0.874469 0.702935
vt 0.360009 0.507505
vt 0.860155 0.699361
vt 0.867312 0.702935
vt 0.367495 0.514991
vt 0.863729 0.702935
vt 0.367178 0.507822
vt 0.867312 0.699513
vt 0.863577 0.699513
vt 0.874469 0.692195
vt 0.860155 0.695778
vt 0.870895 0.688621
vt 0.871046 0.692044
vt 0.863577 0.695778
vt 0.870895 0.702935
vt 0.874469 0.695778
vt 0.874469 0.699361
vt 0.871046 0.695778
vt 0.871046 0.699513
vt 0.867312 0.699513
vt 0.956038 0.819875
vt 0.872878 0.795050
vt 0.945251 0.822737
vt 0.979514 0.702935
vt 0.862778 0.795050
vt 0.045496 0.816187
vt 0.896318 0.690222
vt 0.862778 0.784949
vt 0.979514 0.688621
vt 0.870357 0.795050
vt 0.911309 0.690222
vt 0.872878 0.792528
vt 0.867828 0.784949
vt 0.870463 0.792634
vt 0.911309 0.697391
vt 0.866498 0.792634
vt 0.862778 0.792528
vt 0.979514 0.699361
vt 0.867828 0.795050
vt 0.865300 0.795050
vt 0.865193 0.792634
vt 0.867828 0.792634
vt 0.903804 0.690222
vt 0.865300 0.784949
vt 0.862778 0.790000
vt 0.896318 0.697708
vt 0.979514 0.692195
vt 0.903487 0.697391
vt 0.865193 0.790000
s 0
usemtl Material.001
f 51/138/1 62/173/1 13/36/1 2/4/1
f 75/209/2 86/232/2 63/176/2 50/134/2
f 85/230/3 37/106/3 14/38/3 61/170/3
f 3/6/4 15/40/4 39/110/4 26/71/4
f 27/74/5 38/108/5 87/235/5 74/207/5
f 1/2/6 4/9/6 6/13/6 5/12/6
f 4/8/7 8/19/7 9/22/7 6/14/7
f 2/5/8 7/17/8 9/23/8 8/21/8
f 7/18/9 11/29/9 12/32/9 9/24/9
f 3/7/10 10/28/10 12/33/10 11/31/10
f 10/26/11 5/10/11 6/15/11 12/34/11
f 6/16/12 9/25/12 12/35/12
f 13/37/13 16/43/13 18/47/13 17/45/13
f 16/43/14 20/54/14 21/55/14 18/47/14
f 14/39/15 19/51/15 21/56/15 20/53/15
f 19/50/16 23/62/16 24/65/16 21/57/16
f 15/41/17 22/59/17 24/66/17 23/63/17
f 22/59/18 17/44/18 18/48/18 24/66/18
f 18/49/19 21/58/19 24/67/19
f 25/68/20 28/78/20 30/86/20 29/81/20
f 28/78/21 32/89/21 33/94/21 30/86/21
f 26/72/22 31/87/22 33/93/22 32/90/22
f 31/87/23 35/99/23 36/102/23 33/93/23
f 27/75/24 34/95/24 36/103/24 35/100/24
f 34/96/25 29/82/25 30/85/25 36/104/25
f 30/86/26 33/94/26 36/105/26
f 37/107/27 40/113/27 42/117/27 41/115/27
f 40/112/28 44/121/28 45/124/28 42/119/28
f 38/109/29 43/120/29 45/123/29 44/122/29
f 43/120/30 47/126/30 48/129/30 45/123/30
f 39/111/31 46/125/31 48/128/31 47/127/31
f 46/125/32 41/116/32 42/118/32 48/128/32
f 42/119/33 45/124/33 48/129/33
f 49/130/34 52/142/34 54/149/34 53/145/34
f 52/142/35 56/153/35 57/158/35 54/149/35
f 50/135/36 55/150/36 57/156/36 56/154/36
f 55/151/37 59/163/37 60/166/37 57/157/37
f 51/139/38 58/159/38 60/167/38 59/164/38
f 58/160/39 53/146/39 54/148/39 60/168/39
f 54/149/40 57/158/40 60/169/40
f 61/171/41 64/180/41 66/187/41 65/184/41
f 64/181/42 68/191/42 69/195/42 66/189/42
f 62/174/43 67/190/43 69/194/43 68/192/43
f 67/190/44 71/199/44 72/204/44 69/194/44
f 63/177/45 70/196/45 72/202/45 71/200/45
f 70/197/46 65/185/46 66/188/46 72/203/46
f 66/189/47 69/195/47 72/204/47
f 73/205/48 76/211/48 78/216/48 77/214/48
f 76/212/49 80/220/49 81/223/49 78/218/49
f 74/208/50 79/219/50 81/222/50 80/221/50
f 79/219/51 83/225/51 84/227/51 81/222/51
f 75/210/52 82/224/52 84/228/52 83/226/52
f 82/224/53 77/213/53 78/217/53 84/228/53
f 78/218/54 81/223/54 84/229/54
f 85/231/55 88/239/55 90/243/55 89/241/55
f 88/239/56 92/248/56 93/251/56 90/243/56
f 86/234/57 91/246/57 93/250/57 92/249/57
f 91/246/58 95/254/58 96/258/58 93/250/58
f 87/236/59 94/252/59 96/257/59 95/255/59
f 94/252/60 89/240/60 90/244/60 96/257/60
f 90/245/61 93/251/61 96/258/61
f 25/69/62 1/1/62 5/11/62 28/79/62
f 28/80/63 5/12/63 10/27/63 32/91/63
f 32/92/64 10/28/64 3/7/64 26/73/64
f 2/5/65 13/37/65 17/45/65 7/17/65
f 7/18/66 17/46/66 22/60/66 11/30/66
f 11/31/67 22/61/67 15/42/67 3/7/67
f 14/39/68 37/107/68 41/115/68 19/51/68
f 19/52/69 41/116/69 46/125/69 23/64/69
f 23/64/70 46/125/70 39/111/70 15/42/70
f 38/109/71 27/76/71 35/101/71 43/120/71
f 43/120/72 35/101/72 31/88/72 47/127/72
f 47/127/73 31/88/73 26/73/73 39/111/73
f 73/205/74 25/69/74 29/83/74 76/211/74
f 76/212/75 29/84/75 34/97/75 80/220/75
f 80/221/76 34/98/76 27/77/76 74/208/76
f 37/107/77 85/231/77 89/241/77 40/113/77
f 40/114/78 89/242/78 94/253/78 44/122/78
f 44/122/79 94/253/79 87/237/79 38/109/79
f 86/233/80 75/210/80 83/226/80 91/247/80
f 91/247/81 83/226/81 79/219/81 95/256/81
f 95/256/82 79/219/82 74/208/82 87/238/82
f 49/131/83 73/205/83 77/214/83 52/143/83
f 52/144/84 77/215/84 82/224/84 56/155/84
f 56/155/85 82/224/85 75/210/85 50/136/85
f 85/231/86 61/172/86 65/186/86 88/239/86
f 88/239/87 65/186/87 70/198/87 92/249/87
f 92/249/88 70/198/88 63/178/88 86/234/88
f 62/174/89 51/140/89 59/165/89 67/190/89
f 67/190/90 59/165/90 55/152/90 71/201/90
f 71/201/91 55/152/91 50/137/91 63/179/91
f 1/2/92 49/132/92 53/147/92 4/9/92
f 4/9/93 53/147/93 58/161/93 8/20/93
f 8/21/94 58/162/94 51/141/94 2/5/94
f 61/172/95 14/39/95 20/53/95 64/182/95
f 64/183/96 20/54/96 16/43/96 68/193/96
f 68/193/97 16/43/97 13/37/97 62/175/97
f 25/70/98 73/206/98 49/133/98 1/3/98
